<svg viewBox="0 0 300 100" version="1.1" id="svg_null" xmlns="http://www.w3.org/2000/svg">
    <defs></defs>
    <g transform="matrix(1, 0, 0, 1, -20, -10)">
        <polygon id="shape.secondary" fill="#0a91ab" points="109.25 99 138 83 109.25 67 80.5 83" stroke="none" stroke-width="1" fill-rule="evenodd" transform="matrix(-1, 0, 0, -1, 218.499977, 165.999999)"></polygon>
        <polygon id="shape.secondary" fill="#0a91ab" points="51.75 99 80.5 83 51.75 67 23 83" stroke="none" stroke-width="1" fill-rule="evenodd" transform="matrix(-1, 0, 0, -1, 103.500002, 165.999999)"></polygon>
        <polygon id="shape.primary" fill="#ffc045" points="51.75 35 80.5 19 80.5 51 51.75 67" stroke="none" stroke-width="1" fill-rule="evenodd"></polygon>
        <polygon id="tints" fill="#000" opacity=".1" points="51.75 35 80.5 19 80.5 51 51.75 67" stroke="none" stroke-width="1" fill-rule="evenodd"></polygon>
        <polygon id="shape.primary" fill="#ffc045" points="80.5 51 109.25 67 109.25 35 80.5 19" stroke="none" stroke-width="1" fill-rule="evenodd" transform="matrix(-1, 0, 0, -1, 189.75002, 85.999993)"></polygon>
        <polygon id="shape.accent" fill="#065471" points="80.5 78.2 109.25 62.2 109.25 67 80.5 83" stroke="none" stroke-width="1" fill-rule="evenodd"></polygon>
        <polygon id="shape.accent" fill="#065471" points="51.75 67 80.5 83 80.5 78.2 51.75 62.2" stroke="none" stroke-width="1" fill-rule="evenodd" transform="matrix(-1, 0, 0, -1, 132.250008, 145.200004)"></polygon>
        <polygon id="shape.secondary" fill="#0a91ab" points="80.5 78.2 109.25 62.2 80.5 46.2 51.75 62.2" stroke="none" stroke-width="1" fill-rule="evenodd" transform="matrix(-1, 0, 0, -1, 160.999965, 124.400008)"></polygon>
        <polygon id="shape" fill="#B6E4FC" points="66.125 57.4 73.313 68.6 80.5 65.4 80.5 49.4 66.125 41.4" stroke="none" stroke-width="1" fill-rule="evenodd" transform="matrix(-1, 0, 0, -1, 146.624987, 109.99999)"></polygon>
        <polygon id="shape" fill="#FFF" points="80.5 52.6 94.875 44.6 94.875 60.6 80.5 68.6" stroke="none" stroke-width="1" fill-rule="evenodd"></polygon>
        <polygon id="shape.accent" fill="#065471" points="73.313 41.4 87.688 33.4 94.875 44.6 80.5 52.6" stroke="none" stroke-width="1" fill-rule="evenodd"></polygon>
        <polygon id="shape.accent" fill="#065471" points="66.125 44.6 80.5 36.6 87.688 33.4 73.313 41.4" stroke="none" stroke-width="1" fill-rule="evenodd"></polygon>
        <polygon id="tints" fill-opacity=".3" fill="#000" points="66.125 44.6 80.5 36.6 87.688 33.4 73.313 41.4" stroke="none" stroke-width="1" fill-rule="evenodd"></polygon>
        <polygon id="shape" fill="#B6E4FC" points="98.868 76.6 106.056 87.8 113.243 84.6 113.243 68.6 98.868 60.6" stroke="none" stroke-width="1" fill-rule="evenodd" transform="matrix(-1, 0, 0, -1, 212.110957, 148.400005)"></polygon>
        <polygon id="shape" fill="#FFF" points="113.243 71.8 127.618 63.8 127.618 79.8 113.243 87.8" stroke="none" stroke-width="1" fill-rule="evenodd"></polygon>
        <polygon id="shape.secondary" fill="#0a91ab" points="106.056 60.6 120.431 52.6 127.618 63.8 113.243 71.8" stroke="none" stroke-width="1" fill-rule="evenodd"></polygon>
        <polygon id="shape.secondary" fill="#0a91ab" points="98.868 63.8 113.243 55.8 120.431 52.6 106.056 60.6" stroke="none" stroke-width="1" fill-rule="evenodd"></polygon>
        <polygon id="tints" fill-opacity=".3" fill="#000" points="98.868 63.8 113.243 55.8 120.431 52.6 106.056 60.6" stroke="none" stroke-width="1" fill-rule="evenodd"></polygon>
        <polygon id="shape" fill="#B6E4FC" points="34.979 77.4 42.167 88.6 49.354 85.4 49.354 69.4 34.979 61.4" stroke="none" stroke-width="1" fill-rule="evenodd" transform="matrix(-1, 0, 0, -1, 84.33299, 149.999993)"></polygon>
        <polygon id="shape" fill="#FFF" points="49.354 72.6 63.729 64.6 63.729 80.6 49.354 88.6" stroke="none" stroke-width="1" fill-rule="evenodd"></polygon>
        <polygon id="shape.primary" fill="#ffc045" points="42.167 61.4 56.542 53.4 63.729 64.6 49.354 72.6" stroke="none" stroke-width="1" fill-rule="evenodd"></polygon>
        <polygon id="shape.primary" fill="#ffc045" points="34.979 64.6 49.354 56.6 56.542 53.4 42.167 61.4" stroke="none" stroke-width="1" fill-rule="evenodd"></polygon>
        <polygon id="tints" fill-opacity=".3" fill="#000" points="34.979 64.6 49.354 56.6 56.542 53.4 42.167 61.4" stroke="none" stroke-width="1" fill-rule="evenodd"></polygon>
    </g>
    <g id="Group" transform="matrix(1, 0, 0, 1, 93.411736, 48.624668)" stroke="none" stroke-width="1" fill="none" fill-rule="evenodd">
        <rect id="Rectangle-67" x="0" y="0" width="144" height="20"></rect>
        <text id="headerText.accent" line-spacing="18" data-text-alignment="C" style="fill: rgb(90, 58, 30); font-family: &quot;Overpass Mono&quot;; font-size: 33px; font-weight: 700; white-space: pre;" x="27.648" y="16">TSLiving</text>
    </g>
</svg>
